<?xml version="1.0" encoding="utf-8"?>
<!-- Generator: Adobe Illustrator 23.0.1, SVG Export Plug-In . SVG Version: 6.00 Build 0)  -->
<svg version="1.1" id="Layer_1" xmlns="http://www.w3.org/2000/svg" xmlns:xlink="http://www.w3.org/1999/xlink" x="0px" y="0px"
	 viewBox="0 0 316 655" style="enable-background:new 0 0 316 655;" xml:space="preserve">
<style type="text/css">
	.st0{fill:#FFCC3B;}
	.st1{fill:#161616;}
	.st2{fill:#3A3A3A;}
</style>
<g id="Boxes">
	<path class="st0" d="M37.2,9.5h242.9c2.3,0,4.2,1.9,4.2,4.2v454.1c0,2.3-1.9,4.2-4.2,4.2H37.2c-2.3,0-4.2-1.9-4.2-4.2v-454
		C33,11.4,34.9,9.5,37.2,9.5z"/>
	<path class="st0" d="M158.5,484.5c39.8,0,79.7,0.1,119.5-0.1c3.9,0,5.2,1,5.1,5c-0.3,13.6-0.2,27.2,0,40.8c0,3.1-0.7,4.3-4.1,4.3
		c-80.6-0.1-161.3-0.1-241.9,0c-3.5,0-4.1-1.4-4.1-4.4c0.1-13.7,0.2-27.5,0-41.2c-0.1-3.9,1.3-4.5,4.8-4.5
		C78,484.5,118.2,484.5,158.5,484.5z"/>
	<path class="st0" d="M157.9,547c40,0,79.9,0.1,119.9-0.1c4.3,0,5.4,1.2,5.3,5.4c-0.3,9.3-0.2,18.6,0,27.9c0.1,3.5-1,4.4-4.5,4.4
		c-25.3-0.1-50.5-0.1-75.8-0.1c-54.8,0-109.6,0-164.4,0c-5.4,0-5.4,0-5.4-5.5c0-9.2,0.2-18.3-0.1-27.5c-0.1-3.7,1-4.7,4.7-4.6
		C77.7,547,117.8,547,157.9,547z"/>
	<path class="st0" d="M158.2,597c39.8,0,79.7,0,119.5,0c5.3,0,5.3,0,5.3,5.5c0,5.3-0.1,10.6,0.1,15.8c0.1,3-1,3.9-3.9,3.7
		c-3.9-0.2-7.8,0-11.7,0c-76.3,0-152.6,0-229,0c-5.5,0-5.5,0-5.5-5.7c0-5.1,0.2-10.3-0.1-15.4c-0.1-3.2,1.1-4,4.1-4
		c24.3,0.1,48.6,0.1,72.9,0.1C126,597,142.1,597,158.2,597z"/>
	<path class="st0" d="M157.9,647c-40,0-79.9-0.1-119.9,0.1c-4,0-5.2-1.1-5.1-5.1c0.4-8.7-1.1-7.5,7.6-7.5c78.8,0,157.6,0,236.5,0
		c6,0,6,0,6,6.1c0,0.8-0.1,1.7,0,2.5c0.4,3.1-0.9,4-4,4c-19.1-0.1-38.3-0.1-57.4-0.1C200.3,647,179.1,647,157.9,647z"/>
</g>
<g id="Cat">
	<path class="st1" d="M144.2,260.9c-5.1-3.1-5.2-8.3-0.3-13c2.5-2.4,1.6-3.4-3.2-3.4c-2,0-6.1-0.3-9.1-0.7c-9.4-1.1-8.8-1.3-9.9,2.5
		c-1.5,4.7-2.2,5.9-5,7.9c-2.4,1.7-2.8,1.8-8.3,1.8c-7.4,0-12.7-0.8-14.1-2.4c-1.6-1.6-1.6-5.1,0-7.2l1.3-1.8l-1.9-0.8
		c-2.5-1.1-4.7-4.4-4.7-7c0-2.8,2.1-4.7,6.2-5.9c1.8-0.5,3.6-1.3,3.9-1.7c0.3-0.4,1.1-3.7,1.6-7.4c0.5-3.7,1.8-10,2.8-14.2
		s1.8-8.7,1.8-10.1c0-4.9-5.9-17.4-12.6-26.6c-3.6-5-7.7-13-10.3-20.4c-2.8-7.9-2.8-11.8,0.3-20.8c2.1-6.1,2.4-7.6,2.4-12.4
		c0-6.2-0.9-9.1-3.3-10.2c-2.2-0.9-4.4-1.6-6.7-2.2c-5.2-1.3-7.5-2.8-8.2-5.1c-0.4-1.1-1.1-2.1-1.8-3c-0.8-1-1.4-2.2-1.4-2.7
		c-0.1-0.8-0.4-1.5-0.9-2.2c-1.7-2.2-1.1-4.8,2.1-8.9c1.8-2.2,3.1-4.8,4-7.5c1.6-5.5,2.8-7.5,7.3-11.8s6.3-5.4,10.3-6.5
		s4.2-1.6,2.2-8c-1-3.1-1.7-5.8-1.6-6c0.7-1,2.4-0.4,4.5,1.7c2.1,2.1,2.2,2.1,2.7,0.9c0.5-1.6,1.3-1.6,3.9,0
		c2.8,1.8,20.8,15.8,24,18.9c6,5.7,10.5,13.9,13.3,24.5c3.8,14.3,6.1,20.5,8.3,22.5c1.9,1.6,7.3,2.8,16.3,3.4
		c17.4,1.3,26.9,5.5,37.3,16.3c7.3,7.7,11.8,15.3,15.7,26.5c5.1,14.7,8.3,35.8,8.3,55.9c0,4.9,0.2,8.9,0.5,8.9
		c0.7,0,6.5-6.3,10-10.9c5.6-7.3,9-16.1,9.8-25.3c0.7-8.4-2.7-17-15.1-38.7c-14.4-25.1-17.9-35.1-18.1-50.7
		c-0.1-8.3,0.8-12.7,3.6-18.7c8.8-18.5,34.7-23.4,48.9-9.1c13.2,13.2,12,35.5-2.4,44.8c-6.8,4.4-13.5,4.5-15.3,0.2
		c-2.1-5-0.4-7.7,7.1-11.3c6.9-3.3,8-4.8,8-10.7c0-5.2-1.8-8.9-5.7-11.8c-4-2.9-7.4-4.1-12.1-4.1c-12.7-0.1-19.1,9.9-17,26.5
		c1.5,11.8,4.3,18.5,12.9,31.6c12.4,18.7,18.4,32.3,20.4,46c1,6.6,0.4,17.6-1.2,23.6c-4.2,15.8-16,30.4-30.7,38.1
		c-2.4,1.2-4.2,2.7-4.7,3.6c-1.2,2.4-4.3,5.1-7.7,6.8c-1.6,0.8-3.1,1.8-4.4,3c-1,1.1-2.1,1.6-4.5,1.9c-5.4,0.5-20.4,2.2-26.6,3
		c-3.4,0.5-6.9,0.5-10.3,0c-3.8-0.5-5.1-0.4-8.6,0.5C152.4,262.4,146.6,262.4,144.2,260.9z"/>
</g>
<g id="Text">
	<path id="n" class="st2" d="M282.8,370.7c-4,1.6-5.6,4.6-5.6,8.8c0,7.6,0,15.2,0,22.9c0,4.7-3,7.1-8.6,7.2c-5.7,0-8.8-2.3-8.8-7
		c-0.1-12.9,0.1-25.8-0.1-38.7c-0.1-4,1.3-6.3,5.1-7.2c4.9-1.2,9.1,0.1,11,3.4c0.4,0.7,0.1,1.7,1.2,2.2c2.1-2.3,4.5-4.3,7.4-5.6
		c13.8-5.3,25.7,7.3,25.9,22.2c0.1,7.9-0.1,15.8,0.1,23.7c0.1,3.5-1.5,5.3-4.7,6.3c-2.6,0.8-5.2,0.8-7.8,0.2c-3.4-0.8-5.1-2.8-5-6.5
		c0.2-7.6,0.1-15.2,0-22.8C292.7,373.4,288.8,370,282.8,370.7z"/>
	<path id="u" class="st2" d="M245.4,375.5c0,3.2-0.1,6.3,0,9.5c0.7,14.7-12.6,25.5-25.6,25.3c-14.8-0.2-25.7-10.9-25.8-25.6
		c0-7.1,0-14.2,0-21.2c0-4.7,3.1-7.3,8.6-7.3c5.9,0,8.9,2.4,8.9,7.3c0,7.2,0,14.4,0,21.6c0,5.9,3.4,10,8.2,10.2
		c4.7,0.1,8.2-4,8.3-10c0-6.9,0-13.8,0-20.8c0-5.8,2.6-8.3,8.6-8.4c6.3-0.1,8.9,2.5,8.9,8.6C245.4,368.4,245.5,372,245.4,375.5
		L245.4,375.5z"/>
	<path id="g" class="st2" d="M138.9,408.3c-5-5.8-5-9.1,0.3-14.4c1.2-1.2,1.6-1.6,0.2-3.1c-6.4-6.6-7.1-14.7-4.1-22.8
		c3.1-8.3,10.2-11.6,18.6-12.4c2.7-0.3,5.6-0.2,8.3,0.2c4.1,0.6,7.8,2.2,11.2-2.5c2.2-3.1,8.3-0.5,9,3.5c0.4,1.8,0.1,3.4-2.4,3.8
		c-2.8,0.5-4.1,1.6-2,5c7,11.9-0.2,26.7-14.2,29.9c-3.5,0.8-7.1,0.9-10.8,0.6c-1.1-0.1-2.8-1.1-3,0.8c-0.2,1.7,1.4,2.3,2.8,2.5
		c3.7,0.7,7.4,1.2,11.1,1.7c3.4,0.5,6.8,1.3,10,2.7c11.2,5.1,12.7,19.3,2.9,26.8c-9.6,7.4-29.3,7.3-38.9,0
		C129.4,424.3,129.8,415.4,138.9,408.3z M163.2,375.9c0-1.9,0.1-3.9-0.6-5.7c-1.1-2.7-2.6-5-6-4.8c-3.1,0.2-4.5,2.3-5.3,5
		c-1.1,4.1-1.1,8.2,0.6,12.1c0.9,2.1,2.4,3.3,4.7,3.5c2.3,0.2,3.9-1.1,5.1-3C163.1,380.9,163.2,378.5,163.2,375.9z M154.3,411.7
		c-3.1-0.2-5.9,2.6-6.1,6c-0.2,4,3.2,7.2,8.2,7.6c5,0.4,9.3-2.7,9.5-6.7S161.9,412.1,154.3,411.7z"/>
	<path id="a" class="st2" d="M103.6,402.2c-5,4.8-10,8.2-16.5,8.2c-7-0.1-12.4-3.7-13.9-9.6c-2.1-8.2,0.3-15.2,6.9-18.6
		c6.1-3.1,12.7-3.7,19.4-3.4c3.7,0.2,3.9-1.3,2.8-4.1c-1.2-3.2-3.6-4.8-6.9-5.1c-3.4-0.3-6.6,0.2-9.7,1.7c-4.9,2.5-6.9,2.1-8.7-1.2
		c-2.7-4.9-1.9-8.3,2.4-10.9c9.4-5.7,25.2-4.9,33.4,1.7c4.7,3.8,7.2,8.9,7.4,14.8c0.3,9.2,0.2,18.5,0.2,27.7c0,4-2.9,5.4-6.2,6.1
		c-4.6,0.9-8.6-0.9-9.9-4.2C104,404.4,103.9,403.6,103.6,402.2z M100,387c-7,0.3-9.9,2.2-9.7,6.4c0.1,2.8,1.5,4.4,4.4,4.3
		c3.5-0.1,8.3-5.6,8.2-9.2C102.7,386.2,101,387.3,100,387z"/>
	<path id="B" class="st2" d="M33,326.9c5.2,0.2,10.5,0,15.6,1.7c6.4,2.2,10.6,6.5,11.6,13.3c1.1,7.9,0.6,15.6-6.4,21.1
		c-1.4,1.1-1.8,1.9,0.2,2.9c5.6,2.8,8.2,7.8,8.5,13.8c0.5,9.3,0.6,18.7-7.7,25.4c-3.9,3.2-8.6,4.2-13.5,4.4
		c-2.8,0.1-5.5,0.1-8.3,0.2c-5.8,0-11.6-0.1-17.4-0.1c-6.1-0.1-8.2-2.2-8.2-8.2c0-22.2,0-44.3,0-66.5c0-5.7,2-7.7,7.7-7.8
		C21.1,326.9,27.1,326.9,33,326.9z M33,342.1c-8.2-0.4-8.2-0.4-8.2,7.6c0,0.1,0,0.3,0,0.4c0,8,0,8,8.2,7.6c7.1,0.4,9.9-1.8,10-7.6
		C43.1,344.1,40.2,341.8,33,342.1z M33,394.4c9.2,0.5,11.9-2.1,11.9-11.4c0-9.6-2.6-12.2-11.9-11.7c-1.4,0-2.8,0-4.1-0.2
		c-3.3-0.5-4.4,0.7-4.1,4.1c0.3,3.8,0.1,7.7,0.1,11.6C24.8,394.8,24.8,394.8,33,394.4z"/>
</g>
</svg>
