<?xml version="1.0" encoding="utf-8"?>
<!-- Generator: Adobe Illustrator 23.0.1, SVG Export Plug-In . SVG Version: 6.00 Build 0)  -->
<svg version="1.1" xmlns="http://www.w3.org/2000/svg" xmlns:xlink="http://www.w3.org/1999/xlink" x="0px" y="0px"
	 viewBox="0 0 218.6 160.9" style="enable-background:new 0 0 218.6 160.9;" xml:space="preserve">
<style type="text/css">
	.st0{fill:#FFCC3B;}
	.st1{fill:#FFFFFF;}
	.st2{fill-rule:evenodd;clip-rule:evenodd;fill:#1E1C1C;}
	.st3{fill-rule:evenodd;clip-rule:evenodd;fill:#1E1C1C;stroke:#231F20;stroke-width:0.22;stroke-miterlimit:22.93;}
</style>
<g id="Layer_2">
	<ellipse class="st0" cx="113.2" cy="74" rx="73.8" ry="74.1"/>
</g>
<g id="Layer_1">
	<g id="Cat_1_">
		<ellipse id="White_1_" class="st1" cx="164.1" cy="79.6" rx="12.9" ry="4.8"/>
		<g id="Black_1_">
			<g id="Layer_1-2_1_">
				<path class="st2" d="M171.8,64c0.2,0.1,0.4,0.2,0.6,0.3c0.6,0.2,0.4,0.3,1.8-0.9c1.4-1.3,3.6-3.4,6.3-4.4c2.7-1,3.2-1.4,3.4-0.1
					c0.6,4.9-1.4,9.2-2.9,12.7c-0.5,1.3-0.2,2,0,3.7c0.3,2.1,0.1,4.3-0.4,6.4c-0.3,0.7-0.6,1.5-1,2.2c-1.7,3.3-3.9,5.3-6.7,7.8
					c-0.3,0.3-0.6,0.5-1.1,0.9V82.4c1-0.2,1.8-0.9,2.2-1.7c0.2-0.4,0.3-0.9,0.3-1.3c0-1.4-1.4-1.6-2.6-1.2L171.8,64z M170.9,93.4
					c0,0-1.4,3.7-4.1,9.3c-2.7,5.1-6,9.9-9.9,14.3V81.5c0.3,0,0.7,0,1.1-0.1c0.6-0.1,1.3-0.5,1.5-1.2c0.2-1.2-0.5-1.7-1.9-2.6
					c-0.2-0.1-0.3-0.2-0.5-0.3V60.8c1.1,1.8,0.9,2,2.8,1.7c2.2-0.4,4.3-1.1,7.4-0.3c1.6,0.4,3.2,1,4.6,1.9v14.3
					c-0.2,0.1-0.4,0.2-0.5,0.3c-1.4,0.9-2.1,1.5-1.9,2.6c0.2,0.5,0.6,1.1,1.3,1.2c0.4,0.1,0.7,0.2,1.2,0.1v10.4
					C171.3,93.2,170.9,93.4,170.9,93.4L170.9,93.4z M157,117l-0.1,0.1c-2.3,2.3-4.9,4.3-6.4,8.8s-2.7,11.2-3.5,13.8
					c-1.5,4.9-2.9,8.6-0.6,13.6c0.6,1.3,0.5,0.7,1.7,1.1s3.8,2.2,3.7,4.1c-0.2,1.8-1.6,2.9-6,2.7c-4.3-0.2-5.2-1.5-6.2-2.7
					c-1.1-1.2-1.9-3.7-1.8-6.6c0-2.9-0.3-7.9-0.3-9.7s-0.5-3.5-0.7-6.3c-0.1-2.2-0.4-4.6-1.1-6.7c-0.1-0.4-0.3-0.9-0.5-1.3
					c0,0,0.4,6.7,0.5,9c-0.1,4.2-0.4,8.4-1.2,12.6c-0.9,4.2-1.7,6.1-4,8.1c-2.3,2-4.3,1-5.2-0.2c-1-1.2-2.7-3.2-1.5-8.1
					c1.2-4.9,2.1-10.3,1.2-13s-3-7.3-3.8-9.4s-3.7-7.4-4.5-8c-1.2-0.9-8.4-2.1-7.7,0.9c0.2,0.7,0.3,1.6,0.3,2.3
					c0.1,5.8-5.7,9.9-10.1,13.1c-0.9,0.5-1.8,1.3-2.6,2c-3.5,3-1.3,4.1,1.3,6.7c1.6,1.7,3.6,4.6,4.5,4.7c0.9,0.1,1.7,0.5,2.9,0.2
					c1.3-0.3,3.4,0.4,4.5,1.9c1.2,1.4,1.2,1.9,0.2,3.1c-1,1.2-2.9,1.5-5.2,1.5h-1.2c-4,0-5.8-1-8.8-3.6c-1.5-1.3-2.8-2.6-3.9-3.6
					c-3-2.5-5.6-5.2-7.9-8.3l-0.7-1.1c-1-1.4-1.2-1.6-1.2-1.6s-1.5,1.7-2.1,2.7c-0.6,1-1.5,1.4-1.2,2.7c0.3,1.9,3.6,7,5,8.8
					c0.2,0.3,0.5,0.5,0.9,0.7c1.1,0.3,2.1-0.6,4,1c2,1.7,2.7,3.2,1.8,4.1c-0.9,0.7-1.5,1.9-6.5,1.5c-5-0.4-4.7-0.7-6.5-3
					c-1.9-2.2-3.6-4.8-5-7.5c-2.2-4.1-5.4-10.5-4.8-14.1c0.6-3.6,2.9-4.9,3.2-9.3c0.3-4.4-1-6-2.3-9.2c-0.6-1.5-1.3-3.1-1.9-4.6
					c-1-2.3-1.4-5.7-4.4-6.1c-0.7-0.1-1.6-0.2-2.9-0.4c-2.2-0.3-4.5-0.9-6.7-1.4C41.7,99.8,34,92.4,32,82.5
					c-0.6-3.1-0.5-6.4,0.5-9.5c1.6-5.1,5.2-9.8,7.9-12.7c5.8-6.5,9.8-0.7,6.6,5.7c-0.7,1.4-1.6,2.8-2.6,4c-2.1,2.9-3.7,6-3.8,9.1
					c-0.2,7.7,9.8,13.6,16.6,15.5c2.4,0.6,4.8-0.1,7-3.2c2.2-3.1,11.6-12.6,19.1-16.7c7.5-4,15.2-8,23.2-9.5c8-1.6,17.2-1,23.5,0.2
					c6.3,1.2,9.2,2.1,12.5,3.8c3.3,1.7,5.1,2.7,5.8,1.2c0.2-0.5,0.7-0.9,0.6-1.3c-0.2-2.1-1.6-8.1,0.2-14.3c0.1-0.2,0.3-0.2,0.5-0.3
					c0,0,4.5,2.3,6.5,5.2c0.3,0.4,0.5,0.9,0.7,1.2v16.7c-0.2-0.1-0.3-0.1-0.5-0.1c-1-0.2-1.6,0-1.9,0.9c-0.1,0.1-0.1,0.3-0.1,0.4
					c0,0.5,0.2,1.1,0.4,1.5c0.4,0.7,1.2,1.3,2.1,1.5L157,117z"/>
				<path class="st3" d="M171.7,78.7c-0.2,0.5-0.4,1.1-0.4,1.6c0.1,0.3,0.2,0.7,0.4,1.1c0.2-0.4,0.3-0.9,0.4-1.4
					C172,79.5,171.9,79.1,171.7,78.7z"/>
				<path class="st3" d="M157,77.7c0.2,0.5,0.4,1.1,0.4,1.6c-0.1,0.3-0.2,0.7-0.4,1c-0.2-0.4-0.3-0.9-0.4-1.4
					C156.7,78.5,156.8,78.1,157,77.7z"/>
			</g>
		</g>
	</g>
</g>
</svg>
