<?xml version="1.0" encoding="utf-8"?>
<!-- Generator: Adobe Illustrator 23.0.1, SVG Export Plug-In . SVG Version: 6.00 Build 0)  -->
<svg version="1.1" xmlns="http://www.w3.org/2000/svg" xmlns:xlink="http://www.w3.org/1999/xlink" x="0px" y="0px"
	 viewBox="0 0 499 499" style="enable-background:new 0 0 499 499;" xml:space="preserve">
<style type="text/css">
	.st0{fill:#FFCC3B;}
</style>
<g id="Layer_2">
	<circle class="st0" cx="249.5" cy="249.5" r="243.8"/>
</g>
<g id="Layer_1">
	<g id="layer101">
		<path d="M213.4,429.1c-8.4-5.1-8.6-13.8-0.5-21.5c4.2-4,2.7-5.6-5.3-5.6c-3.3,0-10.1-0.5-15.1-1.1c-15.5-1.9-14.5-2.2-16.4,4.1
			c-2.5,7.8-3.7,9.7-8.3,13c-3.9,2.8-4.6,3-13.7,3c-12.3,0-21-1.4-23.4-3.9c-2.6-2.6-2.6-8.4,0-11.9l2.1-2.9l-3.1-1.4
			c-4.1-1.8-7.7-7.3-7.7-11.6c0-4.6,3.4-7.8,10.3-9.8c3-0.9,6-2.1,6.5-2.8c0.5-0.7,1.8-6.1,2.7-12.2c0.9-6,3-16.6,4.6-23.5
			c1.6-6.9,2.9-14.4,2.9-16.7c0-8.1-9.8-28.8-20.9-44.1c-5.9-8.2-12.7-21.6-17.1-33.7c-4.7-13.1-4.6-19.6,0.5-34.5
			c3.5-10.1,4-12.6,4-20.5c0-10.3-1.5-15-5.4-16.9c-1.4-0.7-6.4-2.3-11.1-3.6c-8.6-2.2-12.4-4.6-13.6-8.4c-0.4-1.2-1.7-3.4-3-4.9
			c-1.3-1.6-2.4-3.6-2.4-4.5c0-0.9-0.7-2.6-1.5-3.6c-2.8-3.7-1.8-7.9,3.4-14.7c3.2-4.2,5.5-8.5,6.6-12.4c2.6-9.1,4.7-12.4,12.1-19.6
			c7.4-7.1,10.5-9,17-10.8c6.7-1.8,7-2.7,3.6-13.3c-1.7-5.1-2.8-9.6-2.6-10c1.1-1.7,4-0.6,7.5,2.8c3.5,3.4,3.7,3.5,4.4,1.5
			c0.8-2.6,2.1-2.6,6.5,0c4.7,2.9,34.4,26.2,39.8,31.3c10,9.4,17.4,23,22.1,40.6c6.3,23.6,10.1,33.9,13.7,37.2
			c3.1,2.7,12.1,4.6,27,5.7c28.8,2.2,44.6,9.1,61.7,27c12.1,12.7,19.6,25.4,26,43.8c8.5,24.4,13.7,59.2,13.7,92.6
			c0,8.1,0.4,14.7,0.9,14.7c1.2,0,10.7-10.4,16.5-18.1c9.5-12.6,15.1-27.2,16.2-41.9c1.1-13.9-4.5-28.2-25-64
			c-23.9-41.6-29.7-58.1-29.9-84c-0.1-13.8,1.3-21.1,6-31c14.6-30.7,57.4-38.7,81-15.1c21.9,21.9,19.9,58.7-4,74.2
			c-11.3,7.3-22.3,7.4-25.3,0.3c-3.5-8.3-0.7-12.8,11.8-18.7c11.4-5.5,13.2-8,13.3-17.7c0-8.6-2.9-14.7-9.5-19.5
			c-6.5-4.8-12.3-6.8-20-6.8c-21-0.1-31.6,16.4-28.1,43.8c2.5,19.5,7.1,30.7,21.4,52.4c20.5,31,30.4,53.4,33.8,76.1
			c1.6,10.9,0.6,29.2-2,39.1c-7,26.1-26.5,50.3-50.9,63c-3.9,2-6.9,4.4-7.8,6c-2,4-7.1,8.4-12.8,11.2c-2.8,1.4-6.1,3.7-7.3,5
			c-1.6,1.9-3.5,2.7-7.5,3.1c-9,0.9-33.8,3.7-44,4.9c-7.1,0.8-11.8,0.8-17.1,0c-6.3-0.9-8.4-0.7-14.3,0.8
			C227,431.5,217.4,431.5,213.4,429.1z"/>
	</g>
</g>
</svg>
